<mxfile host="Electron" modified="2023-11-19T20:55:02.245Z" agent="Mozilla/5.0 (Windows NT 10.0; Win64; x64) AppleWebKit/537.36 (KHTML, like Gecko) draw.io/22.0.2 Chrome/114.0.5735.289 Electron/25.8.4 Safari/537.36" etag="C1T_tgKP3pngp85k77ZR" version="22.0.2" type="device">
  <diagram name="Page-1" id="krUDf0Av4g9Ix1ebSoGR">
    <mxGraphModel dx="1098" dy="820" grid="1" gridSize="10" guides="1" tooltips="1" connect="1" arrows="1" fold="1" page="1" pageScale="1" pageWidth="827" pageHeight="1169" math="0" shadow="0">
      <root>
        <mxCell id="0" />
        <mxCell id="1" parent="0" />
        <mxCell id="4crfgZo-7jpkaTkkQ2Sd-1" value="&lt;h1 style=&quot;font-size: 26px;&quot;&gt;&lt;font style=&quot;font-size: 26px;&quot;&gt;Contrato UC09: Pesquisar Interações Alimentares&amp;nbsp;&lt;/font&gt;&lt;/h1&gt;&lt;p style=&quot;font-size: 26px;&quot;&gt;Operação: pesquisarInteracoesAlimentares(nomeMedicamento)&lt;/p&gt;&lt;p style=&quot;font-size: 26px;&quot;&gt;Referencias:Use Cases: Pesquisar Interações Alimentares&lt;/p&gt;&lt;p style=&quot;font-size: 26px;&quot;&gt;Pré-Condições: O sistema contém informações sobre medicamentos, substâncias ativas e interações alimentares.&lt;/p&gt;&lt;p style=&quot;font-size: 26px;&quot;&gt;Pós-Condições: O Sistema mostra a substancia ativa, o alimento e o efeito para todas as interações alimentares existentes para o medicamento.&lt;/p&gt;&lt;p style=&quot;font-size: 26px;&quot;&gt;&lt;br&gt;&lt;/p&gt;&lt;p style=&quot;font-size: 26px;&quot;&gt;&lt;span style=&quot;&quot;&gt;&lt;span style=&quot;white-space: pre;&quot;&gt;&amp;nbsp;&amp;nbsp;&amp;nbsp;&amp;nbsp;&lt;/span&gt;&lt;span style=&quot;&quot;&gt;&lt;span style=&quot;white-space: pre;&quot;&gt;&amp;nbsp;&amp;nbsp;&amp;nbsp;&amp;nbsp;&lt;/span&gt;&lt;/span&gt;&lt;span style=&quot;&quot;&gt;&lt;span style=&quot;white-space: pre;&quot;&gt;&amp;nbsp;&amp;nbsp;&amp;nbsp;&amp;nbsp;&lt;/span&gt;&lt;/span&gt; &lt;/span&gt;&amp;nbsp;&amp;nbsp;&lt;br&gt;&lt;/p&gt;&lt;p style=&quot;font-size: 26px;&quot;&gt;&lt;br&gt;&lt;/p&gt;" style="text;html=1;strokeColor=none;fillColor=none;spacing=5;spacingTop=-20;whiteSpace=wrap;overflow=hidden;rounded=0;" vertex="1" parent="1">
          <mxGeometry x="30" y="10" width="650" height="490" as="geometry" />
        </mxCell>
        <mxCell id="4crfgZo-7jpkaTkkQ2Sd-2" value="&lt;h1 style=&quot;font-size: 26px;&quot;&gt;&lt;font style=&quot;font-size: 26px;&quot;&gt;Contrato UC09: Indicar Termo de Pesquisa&amp;nbsp;&lt;/font&gt;&lt;/h1&gt;&lt;p style=&quot;font-size: 26px;&quot;&gt;Operação: indicarTermoPesquisa(termoPesquisa)&lt;/p&gt;&lt;p style=&quot;font-size: 26px;&quot;&gt;Referencias:Use Cases: Pesquisar Interações Alimentares.&lt;/p&gt;&lt;p style=&quot;font-size: 26px;&quot;&gt;Pré-Condições: O utilizador indicou que pretende fazer a pesquisa de interações alimentares.&lt;/p&gt;&lt;p style=&quot;font-size: 26px;&quot;&gt;Pós-Condições: O Sistema recebe o termo de pesquisa do utilizador&lt;/p&gt;&lt;p style=&quot;font-size: 26px;&quot;&gt;&lt;br&gt;&lt;/p&gt;&lt;p style=&quot;font-size: 26px;&quot;&gt;&lt;span style=&quot;&quot;&gt;&lt;span style=&quot;white-space: pre;&quot;&gt;&amp;nbsp;&amp;nbsp;&amp;nbsp;&amp;nbsp;&lt;/span&gt;&lt;span style=&quot;&quot;&gt;&lt;span style=&quot;white-space: pre;&quot;&gt;&amp;nbsp;&amp;nbsp;&amp;nbsp;&amp;nbsp;&lt;/span&gt;&lt;/span&gt;&lt;span style=&quot;&quot;&gt;&lt;span style=&quot;white-space: pre;&quot;&gt;&amp;nbsp;&amp;nbsp;&amp;nbsp;&amp;nbsp;&lt;/span&gt;&lt;/span&gt; &lt;/span&gt;&amp;nbsp;&amp;nbsp;&lt;br&gt;&lt;/p&gt;&lt;p style=&quot;font-size: 26px;&quot;&gt;&lt;br&gt;&lt;/p&gt;" style="text;html=1;strokeColor=none;fillColor=none;spacing=5;spacingTop=-20;whiteSpace=wrap;overflow=hidden;rounded=0;" vertex="1" parent="1">
          <mxGeometry x="50" y="510" width="650" height="380" as="geometry" />
        </mxCell>
        <mxCell id="4crfgZo-7jpkaTkkQ2Sd-3" value="&lt;h1 style=&quot;font-size: 26px;&quot;&gt;&lt;font style=&quot;font-size: 26px;&quot;&gt;Contrato UC09: Indicar Termo de Pesquisa&amp;nbsp;&lt;/font&gt;&lt;/h1&gt;&lt;p style=&quot;font-size: 26px;&quot;&gt;Operação: indicarTermoPesquisa(termoPesquisa)&lt;/p&gt;&lt;p style=&quot;font-size: 26px;&quot;&gt;Referencias:Use Cases: Pesquisar Interações Alimentares.&lt;/p&gt;&lt;p style=&quot;font-size: 26px;&quot;&gt;Pré-Condições: O utilizador indicou que pretende fazer a pesquisa de interações alimentares.&lt;/p&gt;&lt;p style=&quot;font-size: 26px;&quot;&gt;Pós-Condições: O Sistema recebe o termo de pesquisa do utilizador&lt;/p&gt;&lt;p style=&quot;font-size: 26px;&quot;&gt;&lt;br&gt;&lt;/p&gt;&lt;p style=&quot;font-size: 26px;&quot;&gt;&lt;span style=&quot;&quot;&gt;&lt;span style=&quot;white-space: pre;&quot;&gt;&amp;nbsp;&amp;nbsp;&amp;nbsp;&amp;nbsp;&lt;/span&gt;&lt;span style=&quot;&quot;&gt;&lt;span style=&quot;white-space: pre;&quot;&gt;&amp;nbsp;&amp;nbsp;&amp;nbsp;&amp;nbsp;&lt;/span&gt;&lt;/span&gt;&lt;span style=&quot;&quot;&gt;&lt;span style=&quot;white-space: pre;&quot;&gt;&amp;nbsp;&amp;nbsp;&amp;nbsp;&amp;nbsp;&lt;/span&gt;&lt;/span&gt; &lt;/span&gt;&amp;nbsp;&amp;nbsp;&lt;br&gt;&lt;/p&gt;&lt;p style=&quot;font-size: 26px;&quot;&gt;&lt;br&gt;&lt;/p&gt;" style="text;html=1;strokeColor=none;fillColor=none;spacing=5;spacingTop=-20;whiteSpace=wrap;overflow=hidden;rounded=0;" vertex="1" parent="1">
          <mxGeometry x="50" y="910" width="650" height="380" as="geometry" />
        </mxCell>
      </root>
    </mxGraphModel>
  </diagram>
</mxfile>
